<?xml version="1.0" standalone="no"?>
<!DOCTYPE svg PUBLIC "-//W3C//DTD SVG 20010904//EN"
 "http://www.w3.org/TR/2001/REC-SVG-20010904/DTD/svg10.dtd">
<svg version="1.0" xmlns="http://www.w3.org/2000/svg"
 width="260.000000pt" height="260.000000pt" viewBox="0 0 260.000000 260.000000"
 preserveAspectRatio="xMidYMid meet">
<metadata>
Created by potrace 1.11, written by Peter Selinger 2001-2013
</metadata>
<g transform="translate(0.000000,260.000000) scale(0.100000,-0.100000)"
fill="#000000" stroke="none">
<path d="M0 1300 l0 -1300 1300 0 1300 0 0 1300 0 1300 -1300 0 -1300 0 0
-1300z m1994 755 c94 -20 152 -50 213 -111 110 -110 113 -285 6 -405 -26 -28
-68 -63 -96 -79 l-49 -28 30 -7 c44 -9 145 -77 175 -117 51 -66 71 -126 70
-213 -1 -189 -110 -316 -318 -370 -75 -20 -287 -30 -427 -20 l-108 7 0 664 c0
564 2 665 14 670 63 24 390 30 490 9z m-1149 -12 c7 -19 298 -874 395 -1161
l59 -173 -96 3 -96 3 -70 208 -69 207 -238 0 -238 0 -69 -207 -70 -208 -93 -3
c-72 -2 -91 0 -88 10 3 7 106 311 229 675 l224 663 106 0 c93 0 108 -2 114
-17z"/>
<path d="M1678 1924 c-5 -4 -8 -103 -8 -221 l0 -213 98 0 c226 0 342 78 342
230 0 85 -31 137 -105 175 -55 28 -67 30 -189 33 -72 2 -134 0 -138 -4z"/>
<path d="M1670 1100 l0 -260 113 0 c226 0 340 63 369 203 25 118 -32 229 -142
276 -57 24 -161 40 -267 41 l-73 0 0 -260z"/>
<path d="M711 1843 c-10 -45 -152 -492 -178 -560 -4 -10 39 -13 195 -13 l201
0 -70 208 c-38 114 -83 254 -99 311 -17 57 -31 106 -33 108 -2 2 -9 -23 -16
-54z"/>
</g>
</svg>
